<svg width="10" height="10" viewBox="0 0 10 10" fill="none" xmlns="http://www.w3.org/2000/svg">
<g clip-path="url(#clip0_20_6445)">
<path d="M4.73315 0.788818C2.55595 0.788818 0.78894 2.55583 0.78894 4.73303C0.78894 6.91024 2.55595 8.67724 4.73315 8.67724C6.91036 8.67724 8.67737 6.91024 8.67737 4.73303C8.67737 2.55583 6.9143 0.788818 4.73315 0.788818Z" fill="#90A3BF"/>
<rect x="1.57776" y="1.57764" width="6.31074" height="6.31074" rx="3.15537" fill="white"/>
<path d="M4.7331 2.36646C3.42678 2.36646 2.36658 3.42666 2.36658 4.73298C2.36658 6.03931 3.42678 7.09951 4.7331 7.09951C6.03943 7.09951 7.09963 6.03931 7.09963 4.73298C7.09963 3.42666 6.04179 2.36646 4.7331 2.36646Z" fill="#90A3BF"/>
<rect x="3.1554" y="3.15527" width="3.15537" height="3.15537" rx="1.57769" fill="white"/>
<rect x="4.33862" y="6.70508" width="0.788843" height="1.57769" fill="#90A3BF"/>
<rect x="6.7052" y="4.33862" width="1.57769" height="0.788843" fill="#90A3BF"/>
<rect x="1.18335" y="4.33862" width="1.57769" height="0.788843" fill="#90A3BF"/>
</g>
<defs>
<clipPath id="clip0_20_6445">
<rect width="9.46611" height="9.46611" fill="white"/>
</clipPath>
</defs>
</svg>
