<svg width="9" height="9" viewBox="0 0 9 9" fill="none" xmlns="http://www.w3.org/2000/svg">
<g clip-path="url(#clip0_20_8893)">
<path fill-rule="evenodd" clip-rule="evenodd" d="M4.45984 1.55951C4.49258 1.49662 4.54452 1.44581 4.60812 1.41445C4.67171 1.38309 4.74364 1.37282 4.81347 1.38513C4.88329 1.39745 4.94738 1.4317 4.99641 1.48292C5.04544 1.53413 5.07687 1.59965 5.08613 1.66995L5.34497 3.50866L7.16911 3.83031C7.24191 3.84033 7.30944 3.8739 7.36136 3.92591C7.41329 3.97792 7.44676 4.0455 7.45667 4.11832C7.46657 4.19114 7.45236 4.2652 7.41621 4.32919C7.38006 4.39317 7.32395 4.44356 7.25647 4.47266L5.58665 5.28479L5.84496 7.12655C5.85562 7.19685 5.84353 7.26872 5.81045 7.33166C5.77737 7.3946 5.72503 7.44532 5.66108 7.47641C5.59713 7.50749 5.52492 7.51732 5.45499 7.50446C5.38506 7.49159 5.32107 7.4567 5.27237 7.40489L3.98012 6.05793L2.30976 6.8731C2.24628 6.90513 2.17422 6.91603 2.10411 6.9042C2.034 6.89237 1.9695 6.85844 1.92004 6.80735C1.87058 6.75627 1.83874 6.69071 1.82919 6.62025C1.81963 6.54979 1.83285 6.47812 1.86691 6.41571L2.73956 4.77337L1.44821 3.4391C1.39474 3.38868 1.35926 3.32214 1.34717 3.24965C1.33509 3.17716 1.34706 3.1027 1.38128 3.03766C1.41549 2.97262 1.47006 2.92056 1.53664 2.88945C1.60322 2.85834 1.67816 2.84988 1.75 2.86537L3.57413 3.18701L4.45984 1.55951Z" stroke="#C3D4E9" stroke-width="0.926137" stroke-linecap="round" stroke-linejoin="round"/>
</g>
<defs>
<clipPath id="clip0_20_8893">
<rect width="7.4091" height="7.4091" fill="white" transform="translate(1.28658) rotate(10)"/>
</clipPath>
</defs>
</svg>
