<svg width="9" height="9" viewBox="0 0 9 9" fill="none" xmlns="http://www.w3.org/2000/svg">
<g clip-path="url(#clip0_20_8889)">
<path fill-rule="evenodd" clip-rule="evenodd" d="M4.45986 1.55951C4.4926 1.49662 4.54454 1.44581 4.60813 1.41445C4.67172 1.38309 4.74366 1.37282 4.81348 1.38513C4.88331 1.39745 4.94739 1.4317 4.99642 1.48292C5.04546 1.53413 5.07688 1.59965 5.08614 1.66995L5.34499 3.50866L7.16912 3.83031C7.24193 3.84033 7.30945 3.8739 7.36138 3.92591C7.4133 3.97792 7.44678 4.0455 7.45668 4.11832C7.46658 4.19114 7.45237 4.2652 7.41622 4.32919C7.38007 4.39317 7.32397 4.44356 7.25648 4.47266L5.58666 5.28479L5.84497 7.12655C5.85563 7.19685 5.84354 7.26872 5.81046 7.33166C5.77738 7.3946 5.72505 7.44532 5.6611 7.47641C5.59715 7.50749 5.52494 7.51732 5.455 7.50446C5.38507 7.49159 5.32109 7.4567 5.27239 7.40489L3.98014 6.05793L2.30978 6.8731C2.2463 6.90513 2.17424 6.91603 2.10412 6.9042C2.03401 6.89237 1.96951 6.85844 1.92005 6.80735C1.87059 6.75627 1.83876 6.69071 1.8292 6.62025C1.81964 6.54979 1.83286 6.47812 1.86693 6.41571L2.73958 4.77337L1.44822 3.4391C1.39476 3.38868 1.35927 3.32214 1.34719 3.24965C1.3351 3.17716 1.34708 3.1027 1.38129 3.03766C1.4155 2.97262 1.47007 2.92056 1.53665 2.88945C1.60323 2.85834 1.67817 2.84988 1.75001 2.86537L3.57415 3.18701L4.45986 1.55951Z" fill="#FBAD39"/>
</g>
<defs>
<clipPath id="clip0_20_8889">
<rect width="7.4091" height="7.4091" fill="white" transform="translate(1.28659) rotate(10)"/>
</clipPath>
</defs>
</svg>
