<svg width="10" height="10" viewBox="0 0 10 10" fill="none" xmlns="http://www.w3.org/2000/svg">
<path d="M8.67732 2.56372L6.31079 2.56372" stroke="#3D5278" stroke-width="0.591632" stroke-miterlimit="10" stroke-linecap="round" stroke-linejoin="round"/>
<path d="M2.3665 2.56372L0.788818 2.56372" stroke="#3D5278" stroke-width="0.591632" stroke-miterlimit="10" stroke-linecap="round" stroke-linejoin="round"/>
<path d="M3.9442 3.9443C4.70661 3.9443 5.32467 3.32624 5.32467 2.56382C5.32467 1.80141 4.70661 1.18335 3.9442 1.18335C3.18178 1.18335 2.56372 1.80141 2.56372 2.56382C2.56372 3.32624 3.18178 3.9443 3.9442 3.9443Z" stroke="#3D5278" stroke-width="0.591632" stroke-miterlimit="10" stroke-linecap="round" stroke-linejoin="round"/>
<path d="M8.67729 6.90234H7.09961" stroke="#3D5278" stroke-width="0.591632" stroke-miterlimit="10" stroke-linecap="round" stroke-linejoin="round"/>
<path d="M3.15535 6.90234H0.788818" stroke="#3D5278" stroke-width="0.591632" stroke-miterlimit="10" stroke-linecap="round" stroke-linejoin="round"/>
<path d="M5.52195 8.28292C6.28437 8.28292 6.90243 7.66486 6.90243 6.90245C6.90243 6.14003 6.28437 5.52197 5.52195 5.52197C4.75954 5.52197 4.14148 6.14003 4.14148 6.90245C4.14148 7.66486 4.75954 8.28292 5.52195 8.28292Z" stroke="#3D5278" stroke-width="0.591632" stroke-miterlimit="10" stroke-linecap="round" stroke-linejoin="round"/>
</svg>
