<svg width="10" height="10" viewBox="0 0 10 10" fill="none" xmlns="http://www.w3.org/2000/svg">
<path d="M8.81139 3.67993L8.02254 3.28551C7.87661 3.21451 7.69517 3.26973 7.62418 3.41566C7.54924 3.56554 7.6084 3.74303 7.75434 3.81403L8.38147 4.12562V6.0149L6.90239 6.01885V1.97208C6.90239 1.18324 6.37386 0.788818 5.71912 0.788818L2.56375 0.788818C1.90901 0.788818 1.38049 1.18324 1.38049 1.97208L1.38049 8.38143H0.788858C0.627145 8.38143 0.493042 8.51553 0.493042 8.67724C0.493042 8.83896 0.627145 8.97306 0.788858 8.97306L7.49402 8.97306C7.65573 8.97306 7.78984 8.83896 7.78984 8.67724C7.78984 8.51553 7.65573 8.38143 7.49402 8.38143H6.90239V6.61048L8.67728 6.60653C8.84294 6.60653 8.9731 6.47243 8.9731 6.31072V3.94419C8.9731 3.83375 8.90999 3.7312 8.81139 3.67993ZM2.36654 2.71754C2.36654 2.16929 2.7018 1.97208 3.112 1.97208L5.17482 1.97208C5.58108 1.97208 5.91633 2.16929 5.91633 2.71754V3.20268C5.91633 3.74698 5.58108 3.94419 5.17088 3.94419L3.112 3.94419C2.7018 3.94419 2.36654 3.74698 2.36654 3.19873V2.71754ZM2.56375 4.83164H3.74702C3.90873 4.83164 4.04283 4.96574 4.04283 5.12745C4.04283 5.28917 3.90873 5.42327 3.74702 5.42327H2.56375C2.40204 5.42327 2.26794 5.28917 2.26794 5.12745C2.26794 4.96574 2.40204 4.83164 2.56375 4.83164Z" fill="#90A3BF"/>
</svg>
