<svg width="10" height="10" viewBox="0 0 10 10" fill="none" xmlns="http://www.w3.org/2000/svg">
<path d="M7.62811 5.71514L7.23369 5.0604C7.15086 4.91447 7.07592 4.63837 7.07592 4.47666V3.47877C7.07592 2.55188 6.53162 1.75121 5.74672 1.37651C5.54162 1.01364 5.16298 0.788818 4.72911 0.788818C4.29919 0.788818 3.91266 1.02153 3.70756 1.38834C2.93844 1.77093 2.40597 2.56371 2.40597 3.47877V4.47666C2.40597 4.63837 2.33103 4.91446 2.2482 5.05646L1.84984 5.71514C1.69207 5.9794 1.65657 6.27127 1.75518 6.53948C1.84984 6.80374 2.07466 7.00884 2.36653 7.10745C3.13171 7.36777 3.93633 7.49398 4.74095 7.49398C5.54556 7.49398 6.35018 7.36777 7.11536 7.11139C7.39146 7.02068 7.60444 6.81163 7.70699 6.53948C7.80954 6.26733 7.78193 5.96757 7.62811 5.71514Z" fill="#3D5278"/>
<path d="M5.84921 7.89237C5.68355 8.3499 5.24574 8.67727 4.733 8.67727C4.4214 8.67727 4.11375 8.55106 3.89682 8.32624C3.77061 8.20791 3.67595 8.05014 3.62073 7.88843C3.672 7.89632 3.72328 7.90026 3.7785 7.90815C3.86921 7.91998 3.96387 7.93181 4.05854 7.9397C4.28336 7.95942 4.51212 7.97126 4.74088 7.97126C4.9657 7.97126 5.19052 7.95942 5.4114 7.9397C5.49423 7.93181 5.57706 7.92787 5.65594 7.91604C5.71905 7.90815 5.78216 7.90026 5.84921 7.89237Z" fill="#3D5278"/>
</svg>
