<svg width="10" height="10" viewBox="0 0 10 10" fill="none" xmlns="http://www.w3.org/2000/svg">
<path d="M3.54977 0.788818C2.51639 0.788818 1.67627 1.62894 1.67627 2.66232C1.67627 3.67598 2.46906 4.49638 3.50244 4.53188C3.53399 4.52793 3.56555 4.52793 3.58921 4.53188C3.5971 4.53188 3.60105 4.53188 3.60893 4.53188C3.61288 4.53188 3.61288 4.53188 3.61682 4.53188C4.62654 4.49638 5.41933 3.67598 5.42327 2.66232C5.42327 1.62894 4.58315 0.788818 3.54977 0.788818Z" fill="#90A3BF"/>
<path d="M5.55346 5.5811C4.45302 4.84748 2.65841 4.84748 1.55008 5.5811C1.04917 5.91636 0.773071 6.36994 0.773071 6.85508C0.773071 7.34022 1.04917 7.78986 1.54614 8.12118C2.09833 8.49193 2.82406 8.67731 3.5498 8.67731C4.27553 8.67731 5.00127 8.49193 5.55346 8.12118C6.05043 7.78592 6.32652 7.33628 6.32652 6.84719C6.32258 6.36206 6.05043 5.91242 5.55346 5.5811Z" fill="#90A3BF"/>
<path d="M7.8845 2.89504C7.94761 3.66022 7.40331 4.33074 6.64997 4.42145C6.64602 4.42145 6.64602 4.42145 6.64208 4.42145H6.63024C6.60658 4.42145 6.58291 4.42145 6.56319 4.42934C6.1806 4.44906 5.82957 4.32679 5.56531 4.10197C5.97156 3.7391 6.20427 3.1948 6.15694 2.60317C6.12933 2.28369 6.01889 1.99182 5.85324 1.74333C6.00312 1.66839 6.17666 1.62106 6.35415 1.60528C7.12722 1.53823 7.81745 2.11409 7.8845 2.89504Z" fill="#90A3BF"/>
<path d="M8.67331 6.54339C8.64176 6.92598 8.39722 7.2573 7.98702 7.48212C7.5926 7.69905 7.09563 7.8016 6.6026 7.78976C6.88659 7.53339 7.05224 7.21391 7.0838 6.87471C7.12324 6.38562 6.89053 5.91626 6.42511 5.54156C6.16085 5.33252 5.8532 5.16686 5.51794 5.04459C6.38962 4.79216 7.48611 4.96176 8.16057 5.50607C8.52344 5.79794 8.70881 6.16475 8.67331 6.54339Z" fill="#90A3BF"/>
</svg>
