<svg width="10" height="10" viewBox="0 0 10 10" fill="none" xmlns="http://www.w3.org/2000/svg">
<path d="M7.92784 3.63667C7.21394 3.63667 6.92207 3.13181 7.27705 2.51257C7.48215 2.15364 7.35988 1.69611 7.00095 1.49101L6.31861 1.10054C6.00701 0.915159 5.6047 1.0256 5.41932 1.33719L5.37594 1.41213C5.02096 2.03137 4.43722 2.03137 4.07829 1.41213L4.03491 1.33719C3.85742 1.0256 3.45511 0.915159 3.14351 1.10054L2.46116 1.49101C2.10224 1.69611 1.97997 2.15759 2.18507 2.51651C2.54399 3.13181 2.25212 3.63667 1.53822 3.63667C1.12802 3.63667 0.788818 3.97192 0.788818 4.38607V5.08025C0.788818 5.49045 1.12408 5.82965 1.53822 5.82965C2.25212 5.82965 2.54399 6.33451 2.18507 6.95375C1.97997 7.31267 2.10224 7.7702 2.46116 7.9753L3.14351 8.36578C3.45511 8.55116 3.85742 8.44072 4.04279 8.12913L4.08618 8.05419C4.44116 7.43494 5.0249 7.43494 5.38383 8.05419L5.42721 8.12913C5.61259 8.44072 6.0149 8.55116 6.32649 8.36578L7.00884 7.9753C7.36777 7.7702 7.49004 7.30873 7.28494 6.95375C6.92601 6.33451 7.21789 5.82965 7.93179 5.82965C8.34199 5.82965 8.68119 5.49439 8.68119 5.08025V4.38607C8.67724 3.97587 8.34199 3.63667 7.92784 3.63667ZM4.73303 6.01503C4.02702 6.01503 3.45116 5.43917 3.45116 4.73316C3.45116 4.02714 4.02702 3.45129 4.73303 3.45129C5.43905 3.45129 6.0149 4.02714 6.0149 4.73316C6.0149 5.43917 5.43905 6.01503 4.73303 6.01503Z" fill="#3D5278"/>
</svg>
